<?xml version="1.0" encoding="UTF-8" standalone="no"?><svg xmlns:svg="http://www.w3.org/2000/svg" xmlns="http://www.w3.org/2000/svg" version="1.1" style="overflow:visible" viewBox="-20 -21 42 40" height="40px" width="42px"><rect fill-opacity="0" fill="rgb(0,0,0)" height="40" width="42" y="-21" x="-20" /><svg version="1.1" y="-250" x="-250" viewBox="-250 -250 500 500" height="500px" width="500px" style="overflow:visible"><g transform="rotate(0,0,0)" stroke-linejoin="round" fill="#fff"><path stroke-linecap="butt" stroke-linejoin="round" stroke-width="2" stroke-opacity="1" stroke="rgb(255,44,44)" fill="none" d="m8.349799-13.0401c-2.889961-1.500489-6.578601-0.670695-8.348281 1.878003c-1.769681-2.550591-5.460901-3.380625-8.35172-1.878003c-2.88617 1.506276-3.9338 4.801337-2.37054 7.457562c-3.33484 0.10703-5.97757 2.574944-5.979291 5.582664c0.003887 3.006945 2.64549 5.472062 5.97826 5.579406c-1.565241 2.65716-0.516892 5.954634 2.37174 7.460514c2.88996 1.500498 6.5786 0.670694 8.34828-1.878003c1.76968 2.550591 5.4609 3.380625 8.35172 1.878003c2.886-1.506546 3.93311-4.801653 2.36968-7.457562c3.335009-0.106272 5.97826-2.57355 5.98032-5.582358c-0.003691-3.006945-2.64514-5.472378-5.97808-5.579712c1.56494-2.656998 0.516546-5.954328-2.371921-7.460199z" /><path stroke-linecap="round" stroke-linejoin="round" stroke-width="2" stroke-opacity="1" stroke="rgb(255,44,44)" fill="none" d="m-0.835201 1.222919c-1.3742 0.620002-2.35177-0.404097-2.56164-0.903852c-0.568936-1.354347 0.969082-2.538648 2.32922-2.666772c2.43286-0.229139 4.24731 1.847133 4.25816 3.89933c0.016115 3.011598-3.130481 5.158575-6.3052 5.025483c-4.2313-0.177594-7.18651-3.809988-6.869731-7.490601c0.398837-4.63149 5.30733-7.82829 10.2812-7.384041c6.02405 0.538008 10.6951 5.343317 9.53191 10.57761c-0.724469 3.26025-4.29758 6.377327-10.2345 6.034212" /></g></svg></svg>